# xmcd CD database file
#
# Track frame offsets:
#	150
#	37553
#	58518
#	73376
#
# Disc length: 1457 seconds
#
# Revision: 0
# Processed by: cddbd v1.5.1PL0 Copyright (c) Steve Scherf et al.
# Submitted via: Feurio! 1.66 - http://www.feurio.com
#
DISCID=2e05af04
DTITLE=Calexico - Montréal 2003-03-20b (Encore)
DYEAR=1900
DGENRE=
TTITLE0=Convict Pool
TTITLE1=Minas de Cobre
TTITLE2=Canción del Mariachi
TTITLE3=Crystal Frontier
EXTD=
EXTT0=
EXTT1=
EXTT2=
EXTT3=
PLAYORDER=
